<?xml version="1.0" standalone="no"?>
<!DOCTYPE svg PUBLIC "-//W3C//DTD SVG 20010904//EN"
 "http://www.w3.org/TR/2001/REC-SVG-20010904/DTD/svg10.dtd">
<svg version="1.0" xmlns="http://www.w3.org/2000/svg"
 width="1122.000000pt" height="237.000000pt" viewBox="0 0 1122.000000 237.000000"
 preserveAspectRatio="xMidYMid meet">

<g transform="translate(0.000000,237.000000) scale(0.100000,-0.100000)"
fill="#000000" stroke="none">
<path d="M294 2260 c-12 -4 -31 -21 -43 -36 -21 -27 -21 -30 -21 -570 l0 -544
28 -31 c21 -24 38 -32 76 -36 l48 -6 534 534 534 534 0 47 c0 39 -6 54 -29 80
-26 29 -35 33 -80 33 l-51 0 -414 -414 -415 -415 -3 380 c-3 416 -2 410 -64
439 -35 17 -68 18 -100 5z"/>
<path d="M1867 2259 c-100 -24 -198 -102 -243 -195 -39 -80 -46 -160 -42 -457
4 -257 5 -275 28 -332 32 -82 122 -173 205 -205 58 -23 72 -24 379 -28 176 -2
339 -1 363 3 55 8 100 46 109 90 9 49 -12 103 -50 126 -29 18 -53 19 -364 19
-368 0 -375 1 -412 63 -16 25 -20 50 -20 114 l0 82 391 3 391 3 29 33 c23 26
29 42 29 78 0 39 -5 51 -34 80 l-34 34 -387 0 -387 0 4 95 c3 92 4 96 36 127
l32 33 355 5 355 5 32 33 c28 28 33 39 33 82 0 43 -5 54 -33 82 l-32 33 -348
2 c-191 1 -364 -3 -385 -8z"/>
<path d="M2970 2253 c-72 -37 -71 -25 -68 -610 3 -512 3 -522 24 -550 45 -61
143 -61 188 0 19 25 21 45 24 183 l3 154 197 0 197 0 185 -185 c121 -121 196
-189 217 -196 45 -15 85 -4 119 32 24 25 29 39 29 80 l0 49 -125 126 c-69 69
-120 128 -113 131 36 13 123 85 155 128 60 78 81 145 82 250 1 107 -17 168
-74 248 -48 66 -119 121 -197 150 -55 21 -76 22 -433 25 -343 2 -378 1 -410
-15z m767 -234 c34 -13 80 -55 99 -91 39 -75 2 -193 -74 -236 -39 -21 -48 -22
-331 -22 l-291 0 0 180 0 180 284 0 c177 0 295 -4 313 -11z"/>
<path d="M4805 2255 c-135 -29 -239 -88 -328 -184 -67 -73 -99 -128 -131 -222
-111 -333 82 -691 424 -785 94 -26 446 -27 539 -1 103 28 187 75 264 148 125
117 185 245 194 414 6 116 -9 190 -61 300 -80 170 -236 289 -429 329 -96 20
-384 21 -472 1z m516 -262 c81 -40 140 -102 181 -189 26 -56 30 -76 30 -149 0
-73 -4 -94 -30 -148 -35 -76 -77 -125 -140 -165 -85 -54 -140 -64 -345 -60
-176 3 -184 4 -244 32 -40 18 -81 48 -113 82 -193 204 -120 518 142 615 47 17
76 19 253 17 l201 -3 65 -32z"/>
<path d="M6088 2242 c-58 -35 -58 -33 -58 -594 0 -387 3 -519 13 -537 29 -57
106 -81 162 -51 54 29 55 38 55 435 0 201 3 365 7 365 4 0 188 -180 408 -400
l401 -400 45 0 c53 0 86 20 105 66 21 50 21 1019 0 1069 -30 72 -134 86 -188
25 l-28 -30 0 -372 0 -373 -408 408 c-401 400 -408 407 -447 407 -22 0 -52 -8
-67 -18z"/>
<path d="M8475 2241 c-11 -5 -249 -239 -530 -520 l-510 -511 0 -49 c0 -38 5
-55 24 -75 33 -35 80 -50 117 -36 16 6 207 188 429 408 l400 397 5 -381 c5
-358 6 -383 24 -403 31 -34 85 -46 128 -28 75 32 73 12 76 562 2 269 0 509 -3
533 -9 60 -48 102 -100 107 -22 3 -49 1 -60 -4z"/>
<path d="M9783 1884 c-9 -4 -13 -31 -13 -85 0 -91 2 -92 105 -87 l60 3 0 85 0
85 -70 2 c-38 1 -76 -1 -82 -3z"/>
<path d="M10007 1884 c-4 -4 -7 -42 -7 -85 0 -88 1 -89 88 -89 81 0 83 3 80
96 l-3 79 -75 3 c-42 1 -79 0 -83 -4z"/>
<path d="M9777 1654 c-4 -4 -7 -43 -7 -86 l0 -78 85 0 86 0 -3 83 -3 82 -75 3
c-42 1 -79 0 -83 -4z"/>
<path d="M10007 1654 c-4 -4 -7 -43 -7 -86 l0 -78 85 0 86 0 -3 83 -3 82 -75
3 c-42 1 -79 0 -83 -4z"/>
<path d="M9045 1281 c-124 -57 -154 -211 -59 -305 45 -44 68 -50 223 -56 142
-5 144 -5 164 -32 18 -24 18 -30 7 -57 -7 -17 -22 -33 -34 -36 -11 -3 -103 -6
-204 -7 -169 -3 -185 -5 -198 -22 -19 -27 -18 -60 4 -79 16 -15 47 -17 221
-17 181 0 206 2 241 20 131 67 129 265 -3 329 -37 18 -62 21 -176 21 -127 0
-133 1 -156 25 -14 13 -25 34 -25 45 0 12 11 32 25 45 24 25 26 25 214 25 185
0 190 1 205 22 21 30 20 54 -4 78 -19 19 -33 20 -212 20 -167 0 -199 -3 -233
-19z"/>
<path d="M9609 1279 c-20 -20 -20 -29 -17 -197 3 -155 6 -183 24 -223 91 -196
339 -252 502 -114 88 74 115 165 110 376 -3 135 -5 152 -22 165 -27 19 -60 18
-79 -3 -12 -14 -16 -51 -19 -184 -3 -164 -3 -166 -33 -214 -92 -148 -308 -118
-354 50 -6 22 -11 106 -11 186 0 129 -2 148 -18 162 -25 23 -58 21 -83 -4z"/>
<path d="M10363 1285 c-23 -16 -23 -17 -23 -300 0 -244 2 -286 16 -299 13 -13
46 -16 209 -16 174 0 200 2 252 21 209 79 261 371 93 523 -81 73 -110 81 -330
84 -166 3 -198 1 -217 -13z m439 -140 c56 -40 88 -96 88 -157 0 -60 -13 -95
-53 -137 -51 -54 -80 -61 -237 -61 l-140 0 0 196 0 196 149 -4 c148 -3 150 -3
193 -33z"/>
<path d="M5992 788 c-7 -7 -12 -33 -12 -60 0 -37 4 -50 19 -58 13 -7 440 -10
1310 -10 1278 0 1291 0 1311 20 24 24 26 67 4 98 l-15 22 -1303 0 c-999 0
-1305 -3 -1314 -12z"/>
<path d="M264 410 c-18 -7 -24 -25 -39 -104 -23 -129 -22 -130 48 -134 35 -2
57 1 57 8 0 6 -24 10 -56 10 l-56 0 7 43 c4 23 9 45 12 50 2 4 29 7 59 7 30 0
54 5 54 10 0 6 -25 10 -55 10 l-56 0 7 38 c9 52 9 52 70 52 30 0 54 5 54 10 0
12 -76 12 -106 0z"/>
<path d="M813 410 c-31 -13 -51 -48 -64 -113 -14 -68 -6 -104 26 -119 18 -8
25 -19 25 -40 0 -24 4 -28 28 -27 23 2 24 2 5 6 -27 5 -34 53 -8 53 8 0 28 12
45 28 24 21 33 41 42 88 13 75 6 107 -27 122 -30 14 -42 14 -72 2z m73 -18
c20 -14 24 -45 13 -104 -18 -91 -82 -135 -130 -87 -17 17 -19 27 -13 67 14 93
39 132 88 132 17 0 36 -4 42 -8z"/>
<path d="M2332 403 c-12 -23 -46 -223 -39 -230 3 -3 9 12 12 33 12 69 12 70
56 71 53 3 85 24 93 63 8 42 -7 66 -45 74 -50 10 -68 7 -77 -11z m106 -40 c4
-45 -26 -73 -78 -73 -22 0 -40 2 -40 5 0 2 5 27 11 55 l11 51 46 -3 c45 -3 47
-5 50 -35z"/>
<path d="M2876 407 c-23 -17 -60 -205 -44 -224 13 -16 122 -18 113 -3 -3 5
-28 10 -56 10 -53 0 -56 4 -43 69 6 30 7 31 65 31 33 0 59 4 59 10 0 6 -25 10
-55 10 -60 0 -66 9 -45 64 9 24 15 26 65 26 35 0 54 4 50 10 -9 15 -88 12
-109 -3z"/>
<path d="M3396 412 c-10 -16 -48 -233 -42 -239 6 -6 10 11 32 135 9 51 18 91
21 88 2 -2 12 -30 22 -62 9 -32 22 -59 28 -61 7 -3 32 26 57 64 25 37 46 65
46 62 0 -3 -9 -54 -20 -114 -11 -60 -18 -111 -15 -113 2 -3 7 1 9 9 7 20 36
190 36 212 0 33 -25 16 -64 -43 -21 -33 -42 -60 -46 -60 -4 0 -13 22 -20 49
-13 57 -33 90 -44 73z"/>
<path d="M4004 410 c-18 -7 -24 -25 -39 -115 -16 -92 -17 -108 -4 -116 19 -12
109 -11 109 1 0 6 -25 10 -55 10 l-56 0 6 38 c11 62 11 62 70 62 30 0 55 5 55
10 0 6 -25 10 -55 10 l-54 0 5 33 c10 57 10 57 69 57 30 0 55 5 55 10 0 12
-76 12 -106 0z"/>
<path d="M5075 410 c-4 -6 8 -10 29 -10 20 0 36 -4 36 -9 0 -9 -27 -161 -36
-199 -2 -13 -1 -21 4 -18 5 3 18 55 28 116 l18 110 38 0 c21 0 38 5 38 10 0 6
-31 10 -74 10 -41 0 -78 -4 -81 -10z"/>
<path d="M5650 409 c-59 -24 -55 -68 10 -115 77 -55 64 -108 -26 -109 -24 0
-44 -4 -44 -9 0 -13 97 -1 115 14 8 7 15 27 15 46 0 27 -7 38 -44 65 -51 36
-60 52 -46 80 9 15 22 19 68 19 40 0 53 3 42 10 -19 12 -58 12 -90 -1z"/>
<path d="M6586 412 c-6 -10 -45 -214 -46 -236 0 -5 25 -6 55 -4 70 6 100 32
114 100 15 69 14 92 -7 118 -20 24 -104 40 -116 22z m109 -36 c14 -21 15 -34
6 -83 -13 -72 -52 -113 -108 -113 l-36 0 7 48 c3 26 11 75 17 110 l11 62 44 0
c35 0 47 -5 59 -24z"/>
<path d="M7144 409 c-12 -16 -50 -227 -42 -235 3 -3 9 12 12 33 12 67 16 73
45 73 23 0 31 -8 54 -56 16 -31 30 -54 33 -51 3 3 -4 23 -15 46 -25 47 -27 71
-7 71 37 0 61 85 31 110 -23 19 -99 25 -111 9z m110 -32 c8 -13 7 -24 -4 -45
-14 -23 -23 -27 -68 -30 -52 -3 -53 -3 -47 22 17 84 12 77 62 74 31 -2 50 -9
57 -21z"/>
<path d="M7724 406 c-33 -15 -49 -45 -63 -120 -15 -83 17 -124 85 -111 51 9
83 70 86 163 1 66 -45 96 -108 68z m86 -21 c17 -20 5 -119 -18 -159 -24 -40
-65 -53 -99 -31 -24 16 -25 21 -19 76 6 62 27 114 48 122 27 11 76 6 88 -8z"/>
<path d="M8295 411 c-46 -19 -75 -84 -75 -168 0 -51 25 -73 82 -73 31 0 40 5
47 23 13 35 20 97 12 97 -5 0 -11 -22 -15 -49 -6 -49 -17 -61 -56 -61 -10 0
-28 9 -41 19 -23 18 -23 21 -12 86 15 90 39 115 107 115 37 0 47 3 36 10 -18
12 -57 12 -85 1z"/>
<path d="M9384 410 c-23 -9 -26 -18 -45 -131 -17 -102 -13 -109 56 -109 35 0
54 4 50 10 -3 5 -29 10 -57 10 l-51 0 7 38 c3 20 6 43 6 50 0 8 19 12 60 12
33 0 60 4 60 10 0 6 -25 10 -56 10 l-56 0 7 37 c10 53 10 53 71 53 34 0 53 4
49 10 -7 12 -72 12 -101 0z"/>
<path d="M9897 413 c-3 -5 -12 -48 -21 -98 -9 -49 -19 -103 -22 -119 -4 -17
-2 -26 4 -22 5 3 12 28 16 56 6 47 8 50 36 50 26 0 33 -7 59 -57 17 -32 30
-52 31 -45 0 7 -9 30 -20 52 -26 50 -25 57 4 64 14 3 29 18 36 36 18 42 2 75
-40 84 -43 8 -78 8 -83 -1z m111 -49 c4 -44 -19 -64 -75 -64 l-46 0 7 38 c3
20 6 43 6 50 0 9 15 12 53 10 50 -3 52 -4 55 -34z"/>
<path d="M10894 410 c-23 -9 -26 -18 -45 -131 -17 -102 -13 -109 56 -109 35 0
54 4 50 10 -3 5 -29 10 -57 10 l-51 0 7 38 c3 20 6 43 6 50 0 8 19 12 60 12
33 0 60 4 60 10 0 6 -25 10 -56 10 l-56 0 7 37 c10 53 10 53 71 53 34 0 53 4
49 10 -7 12 -72 12 -101 0z"/>
<path d="M1337 403 c-11 -18 -30 -172 -23 -196 12 -51 109 -47 134 6 14 29 44
188 37 195 -7 7 -12 -14 -25 -92 -6 -38 -17 -81 -25 -96 -25 -47 -99 -51 -111
-6 -3 13 2 60 10 106 15 77 16 104 3 83z"/>
<path d="M1900 402 c0 -5 -9 -58 -20 -117 -10 -60 -17 -111 -15 -113 7 -7 13
16 33 131 10 59 15 107 10 107 -4 0 -8 -4 -8 -8z"/>
<path d="M4517 403 c-9 -15 -39 -202 -35 -215 4 -12 38 153 38 186 0 40 18 8
49 -86 49 -153 55 -154 82 -16 19 101 24 159 10 123 -4 -11 -14 -56 -21 -100
-6 -44 -15 -86 -19 -93 -4 -7 -22 33 -42 97 -30 98 -48 128 -62 104z"/>
<path d="M8796 393 c-3 -10 -11 -56 -17 -102 -13 -82 -13 -84 10 -102 39 -31
98 -21 121 21 10 18 40 161 40 189 0 33 -11 -1 -25 -75 -9 -43 -18 -87 -21
-97 -9 -27 -50 -50 -79 -43 -41 10 -46 34 -29 131 8 48 13 89 10 92 -2 2 -7
-4 -10 -14z"/>
<path d="M10446 399 c-16 -48 -42 -239 -32 -228 7 7 46 232 41 237 -2 3 -7 -1
-9 -9z"/>
</g>
</svg>
